<svg id="Layer_1" data-name="Layer 1" xmlns="http://www.w3.org/2000/svg" viewBox="0 0 471.18 62"><defs><style>.cls-1{fill:none;}</style></defs><path class="cls-1" d="M332.81,13.1q-7.15,0-11.27,4.89t-4.11,13.1q0,7.69,3.69,12.56,4.14,5.48,11.69,5.47a13.78,13.78,0,0,0,11.53-5.41q3.86-5,3.86-12.62,0-8.22-4.12-13.1T332.81,13.1Z"/><path d="M247.8,28.48h8.72V48.06a29.11,29.11,0,0,1-6.48.78q-7.84,0-12.7-4.3Q232,39.78,232,30.94q0-9.1,5.26-13.67T252,12.71a46,46,0,0,1,6.49.5V8.91a10.43,10.43,0,0,0-3.58-.59c-1.79-.09-3.69-.14-5.7-.14q-11.58,0-18.07,6.82-5.92,6.27-5.93,15.94t5.87,16q6.56,6.93,18.13,6.93,3.18,0,7.94-.45c3.17-.29,5-.7,5.54-1.23V23.9H247.8Z"/><path d="M302.89,34.64a14.82,14.82,0,0,0,3.81-10.52q0-7.15-6.27-11.52a23.28,23.28,0,0,0-13.65-4H268.55V53.37h6.32V13.44h11.91a14.75,14.75,0,0,1,9.06,2.79,9.42,9.42,0,0,1,4,7.89q0,5.76-3.55,8.75t-9.82,3a33.88,33.88,0,0,1-4.92-.28,14,14,0,0,1-5.15-1.85v4.53q1.57,1.84,7.16,5.43a87.39,87.39,0,0,0,12,6.54q7,3.13,11.14,3.13V48.45q-3.7-1.17-7.33-2.4-6.76-2.52-10-5.54a53.58,53.58,0,0,0,5.93-1.29A17.19,17.19,0,0,0,302.89,34.64Z"/><path d="M332.81,8.18q-10,0-16.22,6.66-6,6.42-6,16.22A23.18,23.18,0,0,0,316,46.61q6.09,7.22,16.77,7.21t16.84-7.21A23.21,23.21,0,0,0,355,31.06a22.23,22.23,0,0,0-6.6-16.17A21.18,21.18,0,0,0,332.81,8.18Zm11.53,35.53a13.78,13.78,0,0,1-11.53,5.41q-7.55,0-11.69-5.47-3.69-4.86-3.69-12.56,0-8.22,4.11-13.1t11.27-4.89q7.17,0,11.27,4.89t4.12,13.1Q348.2,38.73,344.34,43.71Z"/><path d="M389,35q0,8.34-4.42,11.75a10.94,10.94,0,0,1-6.88,2.12c-3.76,0-6.62-1.26-8.55-3.8q-2.69-3.52-2.69-10.07V8.63h-6.32V36.76q0,6.89,3.35,11.24,4.49,5.82,14.21,5.82t14.21-5.76q3.4-4.41,3.41-11.3V8.63H389Z"/><path d="M424,9.69a29.47,29.47,0,0,0-7.88-1.06h-15V53.37h5.81V13.44h8.9a17,17,0,0,1,10.4,3.08,11,11,0,0,1,4.65,9.36q0,6.35-4.26,9.59-3.92,3-10.79,3a36.2,36.2,0,0,1-4.31-.2,13.25,13.25,0,0,1-2.35-.42v4.49a3.37,3.37,0,0,0,2.18.86,32.46,32.46,0,0,0,3.81.19h1q9.06,0,14.65-3.91,6.66-4.65,6.66-14.15A14.29,14.29,0,0,0,433,14.5,20.52,20.52,0,0,0,424,9.69Z"/><path d="M442.43,8.74V53.49h28.75V49H452.1c-1.86,0-2.83,0-2.91,0V13.49h22V8.74Z"/><rect x="451.43" y="28.74" width="19.75" height="4.64"/><path d="M0,0V62H216.52A216.67,216.67,0,0,0,196.67,0ZM49.74,19.37a65.81,65.81,0,0,0-7.55,12,92.67,92.67,0,0,0-5.48,12.8c-.19.64-.43,1.42-.73,2.35a1.37,1.37,0,0,1-1.34.84,1.25,1.25,0,0,1-1-.64,11,11,0,0,1-1.06-2.55,90.81,90.81,0,0,0-5.48-12.8,67.4,67.4,0,0,0-7.55-12A4.79,4.79,0,0,0,17,17.58V53.37H11.48V8.63h6.94q1.72,0,7.66,8.83a103.86,103.86,0,0,1,8.56,14.88,99.91,99.91,0,0,1,8.67-15q5.86-8.7,7.55-8.7h6.93V53.37H52.31V17.58A4.77,4.77,0,0,0,49.74,19.37ZM92.18,8.74v4.75h-22V49c.08,0,1,0,2.91,0H92.18v4.48H63.43V8.74ZM63.43,6.5V4.12H92.18V6.5ZM92.18,28.74v4.64H72.43V28.74Zm6.44,24.8V8.4a3,3,0,0,0,.84.06h4.62a12.1,12.1,0,0,0,1.26-.06A62.09,62.09,0,0,1,120,9.86q7.67,1.89,11.75,6.42,4.8,5.31,4.81,14.47,0,8.82-4.36,14.41a20.71,20.71,0,0,1-9.57,6.71,27.33,27.33,0,0,1-9.28,1.67Zm42.91-.17V8.63h6.09V53.37Zm46.87,0q-1.18-5.41-2.8-10.9H164.46a5.73,5.73,0,0,1,.22-1.65c.15-.51.58-1.65,1.29-3.44,1.86.07,3.74.12,5.62.14s4.37,0,7.47,0c.7,0,1.54,0,2.51,0s1.81-.07,2.52-.14a119.43,119.43,0,0,0-5-13.15,45.69,45.69,0,0,0-5.43-9.34q-4.31,5.49-8.44,16.39a143.61,143.61,0,0,0-6.33,22.09h-6.2a109.63,109.63,0,0,1,6.4-23.24,106.19,106.19,0,0,1,11.66-21.5h5.82a106,106,0,0,1,11.74,21.5,108.78,108.78,0,0,1,6.33,23.24Z"/><path d="M129.78,30.8q0-7.28-3.75-11.65-5.2-6.1-17.23-6.1h-3.46V48.79c0,.07.43.11,1.28.11H110q9.74,0,14.43-3.81Q129.78,40.72,129.78,30.8Z"/></svg>