<svg id="Layer_1" data-name="Layer 1" xmlns="http://www.w3.org/2000/svg" viewBox="0 0 288 288"><defs><style>.cls-1{fill:#231f20;}</style></defs><path class="cls-1" d="M60.19,228.51v4.93H58.36V221.29h2.08a9.47,9.47,0,0,1,2.3.21,3.1,3.1,0,0,1,1.39.8,3.51,3.51,0,0,1,1,2.59,3.33,3.33,0,0,1-1.11,2.64,4.44,4.44,0,0,1-3,1Zm0-1.7h.69q2.52,0,2.52-1.95c0-1.25-.87-1.88-2.6-1.88h-.61Z"/><path class="cls-1" d="M67.3,227.31a6,6,0,0,1,1.88-4.41,6.18,6.18,0,0,1,4.5-1.84A6.35,6.35,0,0,1,80,227.38a6,6,0,0,1-1.87,4.45,6.43,6.43,0,0,1-8.77.2A6,6,0,0,1,67.3,227.31Zm1.85,0A4.53,4.53,0,0,0,73.61,232a4.35,4.35,0,0,0,3.23-1.33,4.71,4.71,0,0,0,0-6.51,4.5,4.5,0,0,0-6.39,0A4.34,4.34,0,0,0,69.15,227.33Z"/><path class="cls-1" d="M82.26,233.44l2.56-13.06L89,229.82l4.33-9.44,2.29,13.06H93.73l-1.17-7.33L89,234l-3.49-7.9-1.31,7.34Z"/><path class="cls-1" d="M100.56,228.51v4.93H98.73V221.29h2.08a9.36,9.36,0,0,1,2.3.21,3.1,3.1,0,0,1,1.39.8,3.48,3.48,0,0,1,1,2.59,3.34,3.34,0,0,1-1.12,2.64,4.44,4.44,0,0,1-3,1Zm0-1.7h.69c1.68,0,2.53-.65,2.53-1.95s-.87-1.88-2.61-1.88h-.61Z"/><path class="cls-1" d="M114.78,223h-4.87v2.92h4.73v1.73h-4.73v4.06h4.87v1.72h-6.71V221.29h6.71Z"/><path class="cls-1" d="M123.35,233.44l2.56-13.06,4.17,9.44,4.32-9.44,2.3,13.06h-1.88l-1.18-7.33L130.05,234l-3.5-7.9-1.31,7.34Z"/><path class="cls-1" d="M146.52,223h-4.87v2.92h4.73v1.73h-4.73v4.06h4.87v1.72h-6.71V221.29h6.71Z"/><path class="cls-1" d="M149.75,233.44V221.29h2.55a9.37,9.37,0,0,1,2.9.36,5.46,5.46,0,0,1,2.07,1.21,5.81,5.81,0,0,1,1.88,4.51,5.75,5.75,0,0,1-2,4.53,5.61,5.61,0,0,1-2.06,1.2,9.27,9.27,0,0,1-2.86.34Zm1.84-1.72h.82a7,7,0,0,0,2.06-.26,4.31,4.31,0,0,0,1.48-.88,4.14,4.14,0,0,0,1.35-3.21,4.24,4.24,0,0,0-1.34-3.25,5.05,5.05,0,0,0-3.55-1.11h-.82Z"/><path class="cls-1" d="M164.1,221.29v12.15h-1.84V221.29Z"/><path class="cls-1" d="M175,230.49h-5.2l-1.36,2.95h-2l6-12.91,5.8,12.91h-2Zm-.75-1.72-1.8-4.14-1.89,4.14Z"/><path class="cls-1" d="M225.36,90.15c-6.31-17.76-11.92-23.23-22.53-29.94-11.32-7.17-21.37-6.16-43.45-6.16H70a11.6,11.6,0,0,0-11.6,11.6v18.7h56.87a31.69,31.69,0,0,0,63,4.89V65.65c0-.14,0-.28,0-.42,6.47.27,12.12,1.13,16.31,3.45,8.38,4.63,15.37,8.65,20.67,27.56s3.44,42.13.51,54.24-6.6,20.63-9.1,23.06-7.36,2.66-9.1-1.64c-1.65-4.09-1.36-11-.88-14s2.14-13.28,2.62-16.15,2.25-10.22-2.1-14.56-8.67-4.78-12.73-4.78a30.29,30.29,0,0,0-6.18.69V106.4a38.3,38.3,0,0,1-69.17-16.25H58.36V204.27H96.24V168.1l15.48,15.48a9.28,9.28,0,0,0,13.13,0l15.53-15.52v36.21h37.84V134.45l0,.16c3.91-1.44,10.28-.68,10.53.57.2,1-.53,5.12-1.54,10.65s-3.15,11.09-2,22.27c1.62,15.84,12.89,19.77,21.78,18.2s14.9-15.48,19-31.38S231.66,107.92,225.36,90.15Z"/></svg>