<svg id="Layer_1" data-name="Layer 1" xmlns="http://www.w3.org/2000/svg" viewBox="0 0 432 144"><defs><style>.cls-1{fill:#231f20;}</style></defs><path class="cls-1" d="M108.58,72a10.14,10.14,0,0,1-3.26,7.72,11.26,11.26,0,0,1-8,3.08H45.91c-2.43,0-3.9-1.26-3.9-3.77s1.3-3.77,3.89-3.77H96.15c2.84,0,4.27-1,4.27-3.14S99,68.89,96.15,68.89H52.69a11.65,11.65,0,0,1-8.11-3,9.88,9.88,0,0,1-3.33-7.66,10.1,10.1,0,0,1,3.33-7.73,11.51,11.51,0,0,1,8.11-3.07h51.36c2.34,0,3.78,1.3,3.78,3.89q0,3.64-3.77,3.64H53.82q-4.27,0-4.27,3.27t4.27,3.14H97.28a11.42,11.42,0,0,1,8,3A10,10,0,0,1,108.58,72Z"/><path class="cls-1" d="M174.1,50.91q-4-3.51-13.06-3.5H127a30.82,30.82,0,0,0-7.41.75q-7.39,2-7.41,12V91.58c0,2.53,1.32,3.81,3.81,3.81h0c2.7,0,4-1.39,4.08-3.81v-9h41.07a29.3,29.3,0,0,0,8.29-1.13A11.79,11.79,0,0,0,175,77.7a18.64,18.64,0,0,0,4.52-12.77Q179.5,55.54,174.1,50.91Zm-9.42,23.76a14.74,14.74,0,0,1-3.52.37H120.09V61.4a15.19,15.19,0,0,1,.25-3.21c.58-2.16,2.42-3.25,5.52-3.25h35.3q5.4,0,7.79,2.37t2.39,7.75Q171.34,73,164.68,74.67Z"/><path class="cls-1" d="M386.94,34.84h0c-2.7,0-4.06,1.39-4.08,3.81v9H341.75a29.76,29.76,0,0,0-8.29,1.13,11.83,11.83,0,0,0-5.52,3.76,18.56,18.56,0,0,0-4.52,12.76q0,9.39,5.4,14,4,3.51,13.06,3.51h34a31.07,31.07,0,0,0,7.41-.76c4.93-1.34,7.42-5.34,7.42-12V38.65C390.69,36.12,389.43,34.85,386.94,34.84Zm-4.11,34a15.15,15.15,0,0,1-.25,3.2c-.58,2.17-2.43,3.25-5.53,3.25h-35.3c-3.59,0-6.19-.79-7.78-2.37s-2.39-4.16-2.39-7.74q0-8,6.66-9.61a14.13,14.13,0,0,1,3.51-.38h41.08Z"/><path class="cls-1" d="M249.67,58.13c0,3.18-1.12,5.2-3.33,7.42s-6.15,3.33-9.24,3.33H204.58c-2.5,0-3.76-1.26-3.76-3.77s1.25-3.77,3.76-3.77H237.1c2.84,0,4.4-.7,4.4-3.21s-1.47-3.19-4.4-3.19H201.43a15.7,15.7,0,0,0-3.52.38q-6.66,1.5-6.66,9.67t6.67,9.93a15.86,15.86,0,0,0,3.53.37h44.44c2.51,0,3.78,1.26,3.78,3.77s-1.26,3.77-3.78,3.77H200.33a23.65,23.65,0,0,1-7.17-1.13,12.21,12.21,0,0,1-5.54-3.77,18.68,18.68,0,0,1-4.53-12.81,18.72,18.72,0,0,1,4.52-12.81,12.4,12.4,0,0,1,5.53-3.77,20.2,20.2,0,0,1,7.16-1.13h36.8c3.18,0,7,1.11,9.24,3.32S249.67,55,249.67,58.13Z"/><path class="cls-1" d="M319.83,58.13c0,3.18-1.11,5.2-3.33,7.42s-6.14,3.33-9.24,3.33H274.75c-2.5,0-3.77-1.26-3.77-3.77s1.26-3.77,3.77-3.77h32.51c2.85,0,4.4-.7,4.4-3.21s-1.46-3.19-4.39-3.19H271.59a15.61,15.61,0,0,0-3.51.38c-4.45,1-6.66,4.23-6.66,9.67s2.22,8.84,6.67,9.93a15.71,15.71,0,0,0,3.52.37h44.44q3.78,0,3.78,3.77t-3.77,3.77H270.5a23.7,23.7,0,0,1-7.18-1.13,12.27,12.27,0,0,1-5.54-3.77,18.68,18.68,0,0,1-4.53-12.81,18.72,18.72,0,0,1,4.52-12.81,12.45,12.45,0,0,1,5.53-3.77,20.2,20.2,0,0,1,7.16-1.13h36.8c3.18,0,7,1.11,9.24,3.32S319.83,55,319.83,58.13Z"/><path class="cls-1" d="M211.29,96.72h1.46v4.79h0c.31-.9,1.11-1.29,2.77-1.29h2.23c3.52,0,4.59,1,4.59,3.76v1.53c0,3-1.85,3.65-4.5,3.65h-2c-1.53,0-2.72-.46-3.15-1.51h0V109h-1.36Zm9.62,7.07c0-2-1-2.38-3-2.38h-2c-2,0-3.18.34-3.18,2.41v1.65c0,1.58.7,2.5,2.87,2.5H218c2.38,0,2.91-.8,2.91-2.48Z"/><path class="cls-1" d="M224.85,100.35h1.36v1.26h0a2.7,2.7,0,0,1,2.65-1.39h1.38c2.73,0,3.63.88,3.63,3v1h-1.36v-.37c0-2.14-.44-2.48-3-2.48h-.9a2.08,2.08,0,0,0-2.3,2.11V109h-1.46Z"/><path class="cls-1" d="M244.61,108.16h0c-.39.78-.85,1-3.09,1H238c-2.21,0-2.79-1-2.79-2.6V106c0-2,1.39-2.21,3.94-2.21h2.35c1.9,0,2.58.21,3.09,1h0v-1.63c0-1.57-1-1.77-3.23-1.77h-2.15c-1.83,0-2.19.44-2.19,1.15v.31h-1.46v-.42c0-1.59,1-2.23,3.62-2.23h2.31c2.72,0,4.56.41,4.56,3V109h-1.46Zm0-1.86c0-1.19-1.06-1.34-3.3-1.34h-2.25c-1.88,0-2.41.27-2.41,1.36v.27c0,1,.34,1.38,2.35,1.38h1.93c2.66,0,3.68-.19,3.68-1.28Z"/><path class="cls-1" d="M248.65,100.35H250v1.5h0c.54-1.34,1.68-1.63,3.5-1.63h2.19c2.74,0,3.6,1.38,3.6,2.94V109h-1.46v-5.5c0-1.28-.35-2.11-3.19-2.11h-.38c-3.41,0-4.2.64-4.2,2.68V109h-1.46Z"/><path class="cls-1" d="M272.79,109h-1.36v-1.37h0c-.43,1-1.62,1.51-3.15,1.51h-2c-2.65,0-4.5-.66-4.5-3.65V104c0-2.78,1.07-3.76,4.59-3.76h2.22c1.67,0,2.47.39,2.78,1.29h0V96.72h1.46Zm-9.62-3.53c0,1.68.53,2.48,2.91,2.48h2.38c2.17,0,2.87-.92,2.87-2.5v-1.65c0-2.07-1.21-2.41-3.18-2.41h-2c-2,0-3,.37-3,2.38Z"/><path class="cls-1" d="M292.7,108.16h0c-.39.78-.85,1-3.09,1h-3.5c-2.21,0-2.79-1-2.79-2.6V106c0-2,1.4-2.21,3.94-2.21h2.35c1.9,0,2.58.21,3.09,1h0v-1.63c0-1.57-1-1.77-3.23-1.77h-2.14c-1.84,0-2.2.44-2.2,1.15v.31h-1.46v-.42c0-1.59,1-2.23,3.62-2.23h2.31c2.72,0,4.56.41,4.56,3V109H292.7Zm0-1.86c0-1.19-1.06-1.34-3.3-1.34h-2.24c-1.89,0-2.42.27-2.42,1.36v.27c0,1,.34,1.38,2.35,1.38H289c2.65,0,3.67-.19,3.67-1.28Z"/><path class="cls-1" d="M296.35,103.72c0-3.14,2.21-3.5,4.36-3.5h2.44c2.72,0,3.79,1.1,3.79,2.94v.24h-1.36v-.21c0-1.44-.95-1.78-2.41-1.78h-2.69c-1.37,0-2.66.2-2.66,2.36v1.82c0,1.94,1.19,2.38,2.95,2.38h2.47c1.36,0,2.5-.41,2.5-1.82v-.29h1.36v.26c0,2.19-1.09,3-3.81,3H300c-1.31,0-3.64-.36-3.64-3.5Z"/><path class="cls-1" d="M310.12,101.54h-1.9v-1.19h1.9v-2h1.47v2h5.79v1.19h-5.79v4.32c0,1.62.56,2.11,2.15,2.11h.46c1.94,0,2.25-.41,2.25-2.23v-.64h1.19v1c0,1.73-.17,3.11-3.33,3.11h-.8c-2.74,0-3.39-1.33-3.39-2.74Z"/><path class="cls-1" d="M319.63,96.72h1.46v1.59h-1.46Zm0,3.63h1.46V109h-1.46Z"/><path class="cls-1" d="M322.77,100.35h1.55l4.21,7.48,4.22-7.48h1.55L329.4,109h-1.73Z"/><path class="cls-1" d="M344.73,108.16h0c-.39.78-.85,1-3.09,1h-3.5c-2.21,0-2.79-1-2.79-2.6V106c0-2,1.39-2.21,3.94-2.21h2.35c1.9,0,2.58.21,3.09,1h0v-1.63c0-1.57-1-1.77-3.22-1.77h-2.15c-1.83,0-2.19.44-2.19,1.15v.31h-1.46v-.42c0-1.59,1-2.23,3.62-2.23h2.31c2.72,0,4.56.41,4.56,3V109h-1.47Zm0-1.86c0-1.19-1.05-1.34-3.29-1.34h-2.25c-1.88,0-2.41.27-2.41,1.36v.27c0,1,.34,1.38,2.35,1.38h1.93c2.66,0,3.67-.19,3.67-1.28Z"/><path class="cls-1" d="M349.56,101.54h-1.9v-1.19h1.9v-2H351v2h5.79v1.19H351v4.32c0,1.62.56,2.11,2.15,2.11h.46c1.94,0,2.25-.41,2.25-2.23v-.64h1.19v1c0,1.73-.17,3.11-3.33,3.11H353c-2.74,0-3.39-1.33-3.39-2.74Z"/><path class="cls-1" d="M359.07,96.72h1.46v1.59h-1.46Zm0,3.63h1.46V109h-1.46Z"/><path class="cls-1" d="M363.2,103.74c0-2.86,2-3.52,4.79-3.52h2.09c2.77,0,4.8.66,4.8,3.52v1.9c0,2.86-2,3.52-4.8,3.52H368c-2.77,0-4.79-.66-4.79-3.52Zm10.21.08c0-2-1.19-2.41-2.89-2.41h-3c-1.7,0-2.89.39-2.89,2.41v1.74c0,2,1.19,2.41,2.89,2.41h3c1.7,0,2.89-.39,2.89-2.41Z"/><path class="cls-1" d="M377.34,100.35h1.36v1.5h0c.55-1.34,1.69-1.63,3.51-1.63h2.19c2.74,0,3.6,1.38,3.6,2.94V109h-1.46v-5.5c0-1.28-.36-2.11-3.19-2.11H383c-3.41,0-4.2.64-4.2,2.68V109h-1.46Z"/></svg>