<svg id="Layer_1" data-name="Layer 1" xmlns="http://www.w3.org/2000/svg" viewBox="0 0 432 144"><defs><style>.cls-1{fill:#231f20;}</style></defs><path class="cls-1" d="M108.58,70.74a10.16,10.16,0,0,1-3.26,7.73,11.3,11.3,0,0,1-8,3.08H45.91c-2.43,0-3.9-1.26-3.9-3.77S43.31,74,45.9,74H96.15c2.84,0,4.27-1.05,4.27-3.14S99,67.6,96.15,67.6H52.69a11.64,11.64,0,0,1-8.11-3,9.89,9.89,0,0,1-3.33-7.66,10.08,10.08,0,0,1,3.33-7.73,11.52,11.52,0,0,1,8.11-3.08h51.36c2.34,0,3.78,1.3,3.78,3.9q0,3.65-3.77,3.64H53.82q-4.27,0-4.27,3.27t4.27,3.14H97.28a11.42,11.42,0,0,1,8,3A10,10,0,0,1,108.58,70.74Z"/><path class="cls-1" d="M174.1,49.63q-4-3.51-13.06-3.51H127a31.4,31.4,0,0,0-7.41.75q-7.39,2-7.41,12V90.3q.08,3.8,3.81,3.81h0c2.7,0,4-1.39,4.08-3.81v-9h41.07a29.73,29.73,0,0,0,8.29-1.13A11.81,11.81,0,0,0,175,76.41a18.61,18.61,0,0,0,4.52-12.76Q179.5,54.26,174.1,49.63Zm-9.42,23.75a14.21,14.21,0,0,1-3.52.38H120.09V60.11a15.15,15.15,0,0,1,.25-3.2q.87-3.25,5.52-3.25h35.3q5.4,0,7.79,2.37t2.39,7.74Q171.34,71.76,164.68,73.38Z"/><path class="cls-1" d="M386.94,33.56h0c-2.7,0-4.06,1.39-4.08,3.81v9H341.75a29.33,29.33,0,0,0-8.29,1.13,11.81,11.81,0,0,0-5.52,3.75A18.61,18.61,0,0,0,323.42,64q0,9.39,5.4,14,4,3.49,13.06,3.5h34a30.82,30.82,0,0,0,7.41-.75c4.93-1.34,7.42-5.34,7.42-12V37.37C390.69,34.84,389.43,33.56,386.94,33.56Zm-4.11,34a15.15,15.15,0,0,1-.25,3.2C382,72.92,380.15,74,377.05,74h-35.3c-3.59,0-6.19-.79-7.78-2.38s-2.39-4.16-2.39-7.73q0-8,6.66-9.62a14.65,14.65,0,0,1,3.51-.37h41.08Z"/><path class="cls-1" d="M249.67,56.85c0,3.18-1.12,5.2-3.33,7.42s-6.15,3.33-9.24,3.33H204.58c-2.5,0-3.76-1.26-3.76-3.77s1.25-3.77,3.76-3.77H237.1c2.84,0,4.4-.7,4.4-3.21s-1.47-3.19-4.4-3.19H201.43a15.7,15.7,0,0,0-3.52.38q-6.66,1.5-6.66,9.67t6.67,9.92a15.85,15.85,0,0,0,3.53.38h44.44c2.51,0,3.78,1.26,3.78,3.77s-1.26,3.77-3.78,3.77H200.33a24,24,0,0,1-7.17-1.13,12.21,12.21,0,0,1-5.54-3.77,18.72,18.72,0,0,1-4.53-12.81A18.77,18.77,0,0,1,187.61,51a12.56,12.56,0,0,1,5.53-3.77,20.48,20.48,0,0,1,7.16-1.13h36.8c3.18,0,7,1.11,9.24,3.33S249.67,53.75,249.67,56.85Z"/><path class="cls-1" d="M319.83,56.85c0,3.18-1.11,5.2-3.33,7.42s-6.14,3.33-9.24,3.33H274.75c-2.5,0-3.77-1.26-3.77-3.77s1.26-3.77,3.77-3.77h32.51c2.85,0,4.4-.7,4.4-3.21s-1.46-3.19-4.39-3.19H271.59a15.61,15.61,0,0,0-3.51.38c-4.45,1-6.66,4.23-6.66,9.67s2.22,8.84,6.67,9.92a15.7,15.7,0,0,0,3.52.38h44.44q3.78,0,3.78,3.77t-3.77,3.77H270.5a24.08,24.08,0,0,1-7.18-1.13,12.27,12.27,0,0,1-5.54-3.77,18.72,18.72,0,0,1-4.53-12.81A18.77,18.77,0,0,1,257.77,51a12.62,12.62,0,0,1,5.53-3.77,20.48,20.48,0,0,1,7.16-1.13h36.8c3.18,0,7,1.11,9.24,3.33S319.83,53.75,319.83,56.85Z"/><path class="cls-1" d="M138.76,106.55h0c-.39.78-.85,1-3.09,1h-3.51c-2.21,0-2.78-1-2.78-2.6v-.58c0-2,1.39-2.21,3.94-2.21h2.35c1.9,0,2.58.21,3.09,1h0v-1.63c0-1.56-1-1.77-3.23-1.77h-2.14c-1.83,0-2.19.44-2.19,1.16v.3h-1.46v-.42c0-1.58,1-2.23,3.62-2.23h2.31c2.72,0,4.55.41,4.55,3v5.82h-1.46Zm0-1.85c0-1.19-1-1.35-3.3-1.35h-2.24c-1.89,0-2.41.28-2.41,1.36V105c0,1,.34,1.37,2.34,1.37h1.94c2.65,0,3.67-.18,3.67-1.27Z"/><path class="cls-1" d="M142.42,102.11c0-3.14,2.21-3.5,4.35-3.5h2.45c2.72,0,3.79,1.11,3.79,2.94v.24h-1.36v-.2c0-1.45-1-1.79-2.42-1.79h-2.68c-1.38,0-2.67.21-2.67,2.36V104c0,1.94,1.19,2.38,3,2.38h2.46c1.36,0,2.5-.41,2.5-1.82v-.29h1.36v.26c0,2.19-1.09,3-3.81,3h-3.29c-1.31,0-3.64-.35-3.64-3.5Z"/><path class="cls-1" d="M156.19,99.94h-1.91V98.75h1.91V96.69h1.46v2.06h5.8v1.19h-5.8v4.31c0,1.62.56,2.11,2.16,2.11h.46c1.94,0,2.24-.41,2.24-2.22v-.65h1.19v1c0,1.74-.17,3.11-3.33,3.11h-.8c-2.74,0-3.38-1.32-3.38-2.73Z"/><path class="cls-1" d="M165.69,95.11h1.46v1.6h-1.46Zm0,3.64h1.46v8.67h-1.46Z"/><path class="cls-1" d="M168.84,98.75h1.54l4.22,7.48,4.21-7.48h1.55l-4.89,8.67h-1.74Z"/><path class="cls-1" d="M190.8,106.55h0c-.4.78-.85,1-3.1,1h-3.5c-2.21,0-2.79-1-2.79-2.6v-.58c0-2,1.4-2.21,4-2.21h2.34c1.91,0,2.59.21,3.1,1h0v-1.63c0-1.56-1-1.77-3.23-1.77h-2.14c-1.84,0-2.2.44-2.2,1.16v.3h-1.46v-.42c0-1.58,1-2.23,3.62-2.23h2.32c2.72,0,4.55.41,4.55,3v5.82H190.8Zm0-1.85c0-1.19-1.05-1.35-3.3-1.35h-2.24c-1.89,0-2.42.28-2.42,1.36V105c0,1,.34,1.37,2.35,1.37h1.94c2.65,0,3.67-.18,3.67-1.27Z"/><path class="cls-1" d="M195.63,99.94h-1.91V98.75h1.91V96.69h1.46v2.06h5.8v1.19h-5.8v4.31c0,1.62.56,2.11,2.16,2.11h.46c1.94,0,2.24-.41,2.24-2.22v-.65h1.19v1c0,1.74-.17,3.11-3.33,3.11H199c-2.74,0-3.38-1.32-3.38-2.73Z"/><path class="cls-1" d="M205.13,95.11h1.46v1.6h-1.46Zm0,3.64h1.46v8.67h-1.46Z"/><path class="cls-1" d="M209.26,102.13c0-2.86,2-3.52,4.8-3.52h2.09c2.77,0,4.79.66,4.79,3.52V104c0,2.86-2,3.52-4.79,3.52h-2.09c-2.78,0-4.8-.66-4.8-3.52Zm10.22.09c0-2-1.19-2.42-2.89-2.42h-3c-1.7,0-2.89.39-2.89,2.42V104c0,2,1.19,2.41,2.89,2.41h3c1.7,0,2.89-.39,2.89-2.41Z"/><path class="cls-1" d="M223.41,98.75h1.35v1.49h0c.54-1.34,1.68-1.63,3.5-1.63h2.19c2.74,0,3.61,1.38,3.61,2.94v5.87h-1.46v-5.51c0-1.28-.36-2.11-3.2-2.11h-.37c-3.42,0-4.2.65-4.2,2.69v4.93h-1.46Z"/><path class="cls-1" d="M255.74,107.42h-1.36V106h0c-.42,1-1.61,1.51-3.14,1.51h-2c-2.65,0-4.5-.66-4.5-3.65v-1.53c0-2.77,1.07-3.76,4.58-3.76h2.23c1.67,0,2.47.39,2.77,1.29h0V95.11h1.46Zm-9.62-3.54c0,1.68.52,2.48,2.9,2.48h2.38c2.18,0,2.88-.92,2.88-2.5v-1.64c0-2.08-1.21-2.42-3.18-2.42h-2c-2,0-3,.38-3,2.38Z"/><path class="cls-1" d="M258.1,102.11c0-3.14,2.18-3.5,4.25-3.5h2.35c2.61,0,4.5.66,4.5,3.76v1h-9.64v.54c0,2,.95,2.48,3.5,2.48h2c1.84,0,2.58-.24,2.67-1.56h1.46V105c0,2-1.65,2.58-4.37,2.58h-2.65c-1.9,0-4.08-.35-4.08-3.55Zm9.64-.54c0-.88-.66-1.77-3-1.77h-2.15c-2.31,0-2.85.38-3,2.35h8.18Z"/><path class="cls-1" d="M279.9,95.11h1.46v12.31H279.9Z"/><path class="cls-1" d="M293.27,106.55h0c-.39.78-.85,1-3.09,1h-3.51c-2.21,0-2.78-1-2.78-2.6v-.58c0-2,1.39-2.21,3.94-2.21h2.35c1.9,0,2.58.21,3.09,1h0v-1.63c0-1.56-1-1.77-3.23-1.77H287.9c-1.83,0-2.19.44-2.19,1.16v.3h-1.46v-.42c0-1.58,1-2.23,3.62-2.23h2.31c2.72,0,4.56.41,4.56,3v5.82h-1.47Zm0-1.85c0-1.19-1-1.35-3.29-1.35h-2.25c-1.89,0-2.41.28-2.41,1.36V105c0,1,.34,1.37,2.34,1.37h1.94c2.65,0,3.67-.18,3.67-1.27Z"/><path class="cls-1" d="M305.51,98.75h1.36v1h0c.61-.9,1.44-1.16,2.91-1.16h2.36a2.81,2.81,0,0,1,2.8,1.6c.55-1.17,1.72-1.6,3.22-1.6H320c2.35,0,3.79,1,3.79,3v5.82h-1.46v-5.65c0-1-.44-2-2.77-2h-1c-2.63,0-3,1.09-3,2.48v5.14H314v-5.26c0-1.68-.53-2.36-2.86-2.36h-1.46c-1.87,0-2.73.78-2.73,2.18v5.44h-1.47Z"/><path class="cls-1" d="M335.47,106.55h0c-.39.78-.85,1-3.09,1h-3.5c-2.21,0-2.79-1-2.79-2.6v-.58c0-2,1.39-2.21,3.94-2.21h2.35c1.9,0,2.58.21,3.09,1h0v-1.63c0-1.56-1-1.77-3.23-1.77H330.1c-1.84,0-2.2.44-2.2,1.16v.3h-1.46v-.42c0-1.58,1-2.23,3.62-2.23h2.31c2.72,0,4.56.41,4.56,3v5.82h-1.46Zm0-1.85c0-1.19-1.06-1.35-3.3-1.35h-2.24c-1.89,0-2.42.28-2.42,1.36V105c0,1,.34,1.37,2.35,1.37h1.94c2.65,0,3.67-.18,3.67-1.27Z"/><path class="cls-1" d="M339.63,98.75H341V100h0a2.69,2.69,0,0,1,2.65-1.4h1.38c2.73,0,3.63.89,3.63,3v1h-1.36v-.38c0-2.14-.44-2.48-3-2.48h-.9a2.07,2.07,0,0,0-2.29,2.11v5.51h-1.47Z"/><path class="cls-1" d="M359.66,106.26h0c-.31.9-1,1.29-2.55,1.29h-2.79c-3,0-4.25-1-4.25-3.75v-1.53c0-3,1.94-3.66,4-3.66h2.77a2.94,2.94,0,0,1,2.91,1.51h0V98.75h1.36v11.69h-1.46Zm0-4c0-1.5-.73-2.5-2.65-2.5H354.1c-2.06,0-2.6.8-2.6,2.48V104c0,2,1,2.38,2.72,2.38h2.6c1.55,0,2.84-.34,2.84-2.41Z"/><path class="cls-1" d="M373.21,105.92h0c-.54,1.34-1.68,1.63-3.5,1.63h-2.19c-2.74,0-3.6-1.37-3.6-2.94V98.75h1.46v5.5c0,1.28.35,2.11,3.19,2.11h.38c3.41,0,4.19-.64,4.19-2.68V98.75h1.47v8.67h-1.36Z"/><path class="cls-1" d="M376.93,102.11c0-3.14,2.18-3.5,4.25-3.5h2.35c2.61,0,4.5.66,4.5,3.76v1h-9.64v.54c0,2,.95,2.48,3.5,2.48h2c1.84,0,2.58-.24,2.67-1.56H388V105c0,2-1.65,2.58-4.37,2.58H381c-1.9,0-4.08-.35-4.08-3.55Zm9.64-.54c0-.88-.66-1.77-3-1.77h-2.15c-2.31,0-2.85.38-3,2.35h8.18Z"/></svg>