<svg id="Layer_1" data-name="Layer 1" xmlns="http://www.w3.org/2000/svg" viewBox="0 0 432 360"><defs><style>.cls-1{fill:#231f20;}</style></defs><path class="cls-1" d="M247.81,174.93l12-33.08,0-.11q.12-.36,2.39-8.3t2.51-8.29L276.1,93.87q1.32-3.59,7.76-8.83,6.08-5.13,9.79-6.09a18.51,18.51,0,0,1,4.05-.84c2.39,0,3.59.72,3.59,2.15a4.5,4.5,0,0,1-.12,1l8.11-1.08c5.5-.71,8.4-1.07,8.72-1.07h16.47a3.61,3.61,0,0,0,.6-.12l1.19-.12a24.19,24.19,0,0,1,2.63-.36c3,0,4.53,1.08,4.53,3.22a6,6,0,0,1-.47,2.15q-1.56,4.43-8.24,9.91-7.05,5.85-12.78,6.68c-3.18.49-5.09.72-5.72.72H300.09c-.16,0-1,.08-2.39.24-1.67.24-3,.4-3.94.48q-1.54,5.25-4.89,16.35A86.88,86.88,0,0,1,321,112c3.58,0,5.38,1.12,5.38,3.35a7.57,7.57,0,0,1-.36,2q-1.68,4.31-8.07,9.73t-10.7,6.26q-2.5.47-12.07,1.07a45.38,45.38,0,0,0-12.55,2.39L276.74,153l-3.9,10.72a4.62,4.62,0,0,1-1.55,2.15q-2.62,4.42-8.94,8.6-6.56,4.55-11,4.54a4.32,4.32,0,0,1-2.56-.89,2.64,2.64,0,0,1-1.26-2.21A2.07,2.07,0,0,1,247.81,174.93ZM24.78,95.5a3.47,3.47,0,0,1-.11.37c0-.1.07-.22.11-.32S24.79,95.52,24.78,95.5Zm24.87,27.73c6.77,1.08,31.11,4,34.54,9.76a4.47,4.47,0,0,1,.41,1.59,10.36,10.36,0,0,1-.61,3.83,18.73,18.73,0,0,1-6.42,8.23,25.93,25.93,0,0,1-5.72,3.49c-1,.47-2,1-3.07,1.56A60.21,60.21,0,0,1,58,156.46c-4,1.24-7,1.65-10.9,2.51s-9.19.59-13.58.16c0,0-5,1.91-2.1,12.56l.31,1.36s4,10.46,5.38,11.84c1.6.13,3.42.22,4.87.33a26.42,26.42,0,0,0,5.42-.22c1.43-.23,3.56-.54,4.8-.75a74.23,74.23,0,0,0,17-5.38A90.39,90.39,0,0,0,83,171.49a60.35,60.35,0,0,0,11.63-9.87,41.22,41.22,0,0,0,7.87-12.68,16.52,16.52,0,0,0,1.21-4.8c2.66-11.44-.1-17.76-.1-17.76-5.88-16.87-29.7-23.25-29.7-23.25-1.26-.53-6.49-.7-7.65-3-1-2.08,1.32-2.46,1.64-2.9a12.87,12.87,0,0,1,2.35-.93s6.77-2,16.39-3.73c11.16-2,26.15-3.86,38.92-2.09a26.35,26.35,0,0,0,3.2.26l-1.49,1.14q-8.58,6.84-8.59,11.75,0,3.72,3.94,3.72.47,0,14.44-2t14.21-2H153l-6.09,16.59-.06.21c-.28.86-1.41,4.5-3.4,11q-3.34,10.81-3.46,11.17l-4.54,12.65a57.74,57.74,0,0,0-1.79,5.55l-1.21,4c-.27.89-.43,1.4-.46,1.52a38.93,38.93,0,0,1-3,6.8,9.51,9.51,0,0,0-1.31,5q0,2.75,3.82,2.75,4.89,0,12.94-6.1a36.11,36.11,0,0,0,8.7-8.65,13.53,13.53,0,0,0,1.32-2.51q2-5.07,3.51-9.38c.08-.23,1-3.06,2.75-8.47l2.76-8.47,4.72-12.75c.19-.6.37-1.18.55-1.78q3.28-10.59,6.37-20.68l3.58-.36q8.82-.24,10.85-.24h4.06a7.16,7.16,0,0,1,1.9.42,7.36,7.36,0,0,0,2.15.42q5.48,0,14.19-6.81,9.18-6.92,9.18-12.17,0-3-4.77-3.94a53.84,53.84,0,0,0-7.77-.36q-1.67,0-17.42,1-18.63,1.08-28.29,1.92Q148,83.51,140.6,84.7a17.69,17.69,0,0,0-4.7,1.56c.16-6.83-11.06-19-11.06-19a68.22,68.22,0,0,0-21.62-2.4,108.67,108.67,0,0,0-20.07,2.81c-3.2.84-6.33,1.89-9.44,2.94-2.8.94-5.59,1.89-8.41,2.69-6.92,2-12.41,4.58-18.23,6.48,0,0-18.76,6.59-23.27,19a22,22,0,0,0-.65,4.8c0,2.32-3.07,15,18.71,18.33C42.36,122,49.65,123.23,49.65,123.23ZM23.77,98.81l0-.06c0-.06,0-.12,0-.18A2.46,2.46,0,0,1,23.77,98.81Zm.07-.24c.13-.41.4-1.3.62-2C24.24,97.21,24,97.88,23.84,98.57Zm380.61-20.1a24.19,24.19,0,0,0-2.63.36l-1.19.12a3.61,3.61,0,0,1-.6.12H383.55c-.31,0-3.22.36-8.71,1.07l-8.12,1.08a4,4,0,0,0,.13-1c0-1.43-1.2-2.15-3.59-2.15a18.51,18.51,0,0,0-4.05.84q-3.7,1-9.79,6.09-6.45,5.25-7.76,8.83l-11.34,31.28q-.24.36-2.51,8.29t-2.39,8.3l-12.05,33.19a2.07,2.07,0,0,0-.25.95,2.64,2.64,0,0,0,1.26,2.21,4.32,4.32,0,0,0,2.56.89q4.41,0,11-4.54,6.31-4.17,8.94-8.6a4.62,4.62,0,0,0,1.55-2.15l9.76-26.86a45.53,45.53,0,0,1,12.56-2.39q9.55-.6,12.07-1.07,4.31-.84,10.7-6.26t8.06-9.73a7.19,7.19,0,0,0,.36-2q0-3.35-5.37-3.35a86.88,86.88,0,0,0-32.11,6.21q3.35-11.1,4.89-16.35c1-.08,2.27-.24,3.94-.48,1.43-.16,2.23-.24,2.39-.24h16.12c.63,0,2.54-.23,5.72-.72q5.75-.83,12.78-6.68,6.68-5.49,8.24-9.91a6,6,0,0,0,.47-2.15C409,79.55,407.47,78.47,404.45,78.47ZM218.13,101.39q16-20.06,26.62-20c2.46,0,3.7,1,3.7,3a12,12,0,0,1-.6,3.11,14.32,14.32,0,0,0-.35,3.45v3.47Q246,116,245.51,135l0,1.24c-.14,5.38-.23,10.63-.25,15.69a28.78,28.78,0,0,1-1.56,9.66q-1.78,4.9-8.83,10.75-7.51,6.21-13,6.21-3.47,0-3.46-3.35a5.31,5.31,0,0,1,.23-1.43,26,26,0,0,0,1.2-6.57,44.25,44.25,0,0,0,0-6.56q-.11-4.42-.12-5.88v-.33l-3.83,1.93q-20.85,10.5-24.7,13.47-6.57,5-8.6,6.21a18.66,18.66,0,0,1-9.42,2.87c-3,0-4.54-1.2-4.54-3.58a10.7,10.7,0,0,1,.71-3.35,31.25,31.25,0,0,1,3.26-6.59c.07-.11.13-.22.21-.33q6.55-10,22.2-32.35c1.8-2.57,3.59-5.09,5.38-7.59Q209.31,112.6,218.13,101.39Zm3.15,19.73-4.4,6.17q-9.47,13.3-15.44,22.11,6.39-3.47,19-10c.18-3.5.38-7.3.57-11.36C221.07,125.79,221.18,123.52,221.28,121.12Zm145.29,90.06c-66.83-3.4-135-3.63-202.63-2.34-31.36.6-62.6,1.52-93.52,2.61q-10.55.38-21,.77c-19.09.71-35.63,20-9.14,19,29.34-1.1,59-2.06,88.82-2.76q22.91-.54,45.89-.86,34.11-.44,68.25-.19c35.24.27,70.4,1.15,105.2,2.93a37.33,37.33,0,0,0,22.72-6.79C378.24,218.28,379.45,211.84,366.57,211.18Zm-174.7,71.6h5.47V281h-5.47v-9.45h6.72v-1.84h-9.12v25.2h9.18v-1.78h-6.78Zm-102.64-.22-4.45-4.2a6.26,6.26,0,0,1-1.38-1.81,4.36,4.36,0,0,1-.39-1.86,3.07,3.07,0,0,1,1-2.52,4.56,4.56,0,0,1,4.84-.22,3.38,3.38,0,0,1,1.21,1.73,11,11,0,0,1,.51,2.72l2-.53a12.18,12.18,0,0,0-.59-2.95,5.25,5.25,0,0,0-1.2-2,4.47,4.47,0,0,0-1.84-1.1,7.83,7.83,0,0,0-2.41-.35,5.94,5.94,0,0,0-4.13,1.4,5.13,5.13,0,0,0-1.56,4,6.48,6.48,0,0,0,.56,2.69A7.75,7.75,0,0,0,83.16,280l4.45,4.27a15.3,15.3,0,0,1,2.26,2.56,5.12,5.12,0,0,1,.82,2.88,3.65,3.65,0,0,1-.93,2.77,3.72,3.72,0,0,1-2.62.87,3.65,3.65,0,0,1-2.39-.73,4.22,4.22,0,0,1-1.28-2,14.08,14.08,0,0,1-.56-2.82l-2.08.62a10.7,10.7,0,0,0,.84,3.6,5.37,5.37,0,0,0,2,2.39,6.24,6.24,0,0,0,3.4.86,6.88,6.88,0,0,0,3-.64,4.65,4.65,0,0,0,2-1.91,6.38,6.38,0,0,0,.73-3.17,7,7,0,0,0-1.09-3.86A16.35,16.35,0,0,0,89.23,282.56Zm66,.22h5.47V281H155.2v-9.45h6.71v-1.84H152.8v25.2H162v-1.78H155.2Zm-82.93-.72,3.86,12.88h-2.3l-3.7-12.38H66.18v12.38H63.81v-25.2h5.7a7.68,7.68,0,0,1,3.71.76,4.38,4.38,0,0,1,2,2.21,9.17,9.17,0,0,1,.59,3.44,11.32,11.32,0,0,1-.31,2.65,5.13,5.13,0,0,1-1.06,2.11A3.66,3.66,0,0,1,72.27,282.06Zm.81-3.33a7.55,7.55,0,0,0,.38-2.58,6.06,6.06,0,0,0-.81-3.48c-.54-.77-1.61-1.15-3.21-1.15H66.18v9.29h3.2a4.79,4.79,0,0,0,2.46-.52A2.9,2.9,0,0,0,73.08,278.73Zm96.52-9h-2.37v25.2h9.52v-1.78H169.6Zm-43.42,19.57-8-19.57h-1.71v25.2h2V275.15l8.08,19.79h1.68v-25.2h-2Zm18.19,0-8-19.57h-1.71v25.2h2V275.15l8.09,19.79h1.68v-25.2h-2.06Zm-34.46-16.25a12.24,12.24,0,0,1,.59,4v10.48a13,13,0,0,1-.57,4,5.3,5.3,0,0,1-2,2.72,8.29,8.29,0,0,1-7.82,0,5.22,5.22,0,0,1-2-2.74,12.72,12.72,0,0,1-.58-4V277.05a11.7,11.7,0,0,1,.61-4,5.15,5.15,0,0,1,2-2.63,6.84,6.84,0,0,1,3.84-.94,6.94,6.94,0,0,1,3.88.94A5,5,0,0,1,109.91,273.06Zm-1.8,3.56a10.36,10.36,0,0,0-.33-2.77,3.27,3.27,0,0,0-1.2-1.82,5.36,5.36,0,0,0-5.08,0,3.24,3.24,0,0,0-1.22,1.82,10.82,10.82,0,0,0-.32,2.77V288a11,11,0,0,0,.32,2.79,3.42,3.42,0,0,0,1.22,1.86,5.15,5.15,0,0,0,5.08,0,3.44,3.44,0,0,0,1.2-1.86,10.57,10.57,0,0,0,.33-2.79Zm-56.33,6.16h5.47V281H51.78v-9.45H58.5v-1.84H49.39v25.2h9.17v-1.78H51.78Zm-8-9.86a10,10,0,0,1,.55,3.51,9.19,9.19,0,0,1-.57,3.28,5,5,0,0,1-1.9,2.41,6,6,0,0,1-3.46.9H34.73v11.92H32.37v-25.2h6a6.44,6.44,0,0,1,3.56.84A4.65,4.65,0,0,1,43.82,272.92ZM42,276.43a9.43,9.43,0,0,0-.37-3,2.46,2.46,0,0,0-1.29-1.5,6.62,6.62,0,0,0-2.6-.41H34.73v9.73h3a5.77,5.77,0,0,0,2.47-.45,2.72,2.72,0,0,0,1.39-1.51A7.68,7.68,0,0,0,42,276.43Zm203.23,12.88-8-19.57h-1.71v25.2h2V275.15l8.09,19.79h1.68v-25.2h-2Zm69,0-8-19.57h-1.71v25.2h2V275.15l8.09,19.79h1.68v-25.2h-2.06Zm34.65-6.53h5.48V281H348.9v-9.45h6.72v-1.84h-9.11v25.2h9.17v-1.78H348.9Zm-27.83-11.2h4.76v23.36h2.36V271.58h4.6v-1.84H321.07Zm-125.56-9.39-2,6.06h1.18l3-6.06Zm167.79,7.55h-2.36v25.2h9.52v-1.78H363.3Zm-25.63,25.2H340v-25.2h-2.37Zm-81.58-12.16h5.48V281h-5.48v-9.45h6.72v-1.84H253.7v25.2h9.17v-1.78h-6.78Zm-32.59,0H229V281H223.5v-9.45h6.71v-1.84H221.1v25.2h9.18v-1.78H223.5Zm-14,7.83-4.76-20.87h-2.27l5.91,25.2h2.15l5.69-25.2H214Zm83-7.83H298V281h-5.48v-9.45h6.72v-1.84h-9.11v25.2h9.17v-1.78h-6.78Zm-11.54-13-5.06,21.87-5-21.87h-2.34l-.62,25.2h2l.5-20,4.76,20h1.52l4.82-20.06.5,20.06h2l-.62-25.2Zm-54-7.55-2,6.06h1.18l3-6.06Z"/></svg>