<svg id="Layer_1" data-name="Layer 1" xmlns="http://www.w3.org/2000/svg" viewBox="0 0 432 360"><defs><style>.cls-1{fill:#231f20;}</style></defs><path class="cls-1" d="M247.81,175l12-33.07,0-.11q.12-.36,2.39-8.3c1.51-5.29,2.35-8.06,2.51-8.29L276.1,93.9q1.32-3.59,7.76-8.83,6.08-5.13,9.79-6.09a18.51,18.51,0,0,1,4.05-.84c2.39,0,3.59.72,3.59,2.15a4.5,4.5,0,0,1-.12,1c.55-.09,3.26-.44,8.11-1.08,5.5-.71,8.4-1.07,8.72-1.07h16.47a3.61,3.61,0,0,0,.6-.12l1.19-.12a24.19,24.19,0,0,1,2.63-.36c3,0,4.53,1.08,4.53,3.22a6,6,0,0,1-.47,2.15q-1.56,4.42-8.24,9.91-7.05,5.85-12.78,6.68-4.77.72-5.72.72H300.09c-.16,0-1,.08-2.39.24-1.67.24-3,.4-3.94.48q-1.54,5.25-4.89,16.35A86.88,86.88,0,0,1,321,112c3.58,0,5.38,1.12,5.38,3.34a7.57,7.57,0,0,1-.36,2q-1.68,4.31-8.07,9.72t-10.7,6.27q-2.5.47-12.07,1.07a45.4,45.4,0,0,0-12.55,2.38L276.74,153l-3.9,10.72a4.62,4.62,0,0,1-1.55,2.15q-2.62,4.42-8.94,8.6-6.56,4.54-11,4.54a4.39,4.39,0,0,1-2.56-.89,2.64,2.64,0,0,1-1.26-2.21A2.15,2.15,0,0,1,247.81,175Z"/><path class="cls-1" d="M24.78,95.53a3.47,3.47,0,0,1-.11.37c0-.11.07-.22.11-.32S24.79,95.55,24.78,95.53Z"/><path class="cls-1" d="M49.65,123.26c6.77,1.08,31.11,4,34.54,9.76a4.47,4.47,0,0,1,.41,1.59,10.36,10.36,0,0,1-.61,3.83,18.73,18.73,0,0,1-6.42,8.23,25.93,25.93,0,0,1-5.72,3.49c-1,.47-2,1-3.07,1.56A60.21,60.21,0,0,1,58,156.49c-4,1.24-7,1.65-10.9,2.5s-9.19.6-13.58.17c0,0-5,1.91-2.1,12.56l.31,1.36s4,10.46,5.38,11.84c1.6.13,3.42.22,4.87.33a26.42,26.42,0,0,0,5.42-.22c1.43-.23,3.56-.54,4.8-.75a74.23,74.23,0,0,0,17-5.38A90.39,90.39,0,0,0,83,171.52a60.35,60.35,0,0,0,11.63-9.87,41.52,41.52,0,0,0,2.81-3.45,40.17,40.17,0,0,0,5.06-9.23,16.59,16.59,0,0,0,1.21-4.81c2.66-11.43-.1-17.75-.1-17.75-5.88-16.88-29.7-23.26-29.7-23.26-1.26-.52-6.49-.69-7.65-3-1-2.08,1.32-2.46,1.64-2.9a12.87,12.87,0,0,1,2.35-.93s6.77-2,16.39-3.73c11.16-2,26.15-3.86,38.92-2.09a26.35,26.35,0,0,0,3.2.26l-1.49,1.14q-8.58,6.84-8.59,11.75,0,3.72,3.94,3.72.47,0,14.44-2t14.21-2H153l-6.09,16.59-.06.21c-.28.86-1.41,4.5-3.4,11q-3.34,10.81-3.46,11.17l-4.54,12.65a57.74,57.74,0,0,0-1.79,5.55l-1.21,4c-.27.89-.43,1.4-.46,1.52a39.28,39.28,0,0,1-3,6.8,9.51,9.51,0,0,0-1.31,5q0,2.75,3.82,2.74,4.89,0,12.94-6.09a36.29,36.29,0,0,0,8.7-8.65,13.53,13.53,0,0,0,1.32-2.51q2-5.07,3.51-9.38.12-.36,2.75-8.47l2.76-8.47,4.72-12.75c.19-.6.37-1.18.55-1.78q3.28-10.59,6.37-20.68l3.58-.36q8.82-.24,10.85-.24h4.06a7.16,7.16,0,0,1,1.9.42,7.36,7.36,0,0,0,2.15.42q5.48,0,14.19-6.81,9.18-6.92,9.18-12.18,0-3-4.77-3.93a53.84,53.84,0,0,0-7.77-.36q-1.67,0-17.42,1-18.63,1.08-28.29,1.92Q148,83.53,140.6,84.73a17.34,17.34,0,0,0-4.7,1.56c.16-6.83-11.06-19-11.06-19a68.53,68.53,0,0,0-21.62-2.41,108.68,108.68,0,0,0-20.07,2.82c-3.2.84-6.33,1.89-9.44,2.94-2.8.94-5.59,1.89-8.41,2.69-6.92,2-12.41,4.58-18.23,6.47,0,0-18.76,6.6-23.27,19a22,22,0,0,0-.65,4.8c0,2.32-3.07,15,18.71,18.33C42.36,122,49.65,123.26,49.65,123.26Z"/><path class="cls-1" d="M23.77,98.84l0-.06c0-.06,0-.12,0-.18Z"/><path class="cls-1" d="M23.84,98.6c.13-.41.4-1.3.62-2C24.24,97.24,24,97.91,23.84,98.6Z"/><path class="cls-1" d="M404.45,78.5a24.19,24.19,0,0,0-2.63.36l-1.19.12a3.61,3.61,0,0,1-.6.12H383.55c-.31,0-3.22.36-8.71,1.07-4.85.64-7.56,1-8.12,1.08a4,4,0,0,0,.13-1c0-1.43-1.2-2.15-3.59-2.15a18.51,18.51,0,0,0-4.05.84q-3.7,1-9.79,6.09-6.45,5.25-7.76,8.83l-11.34,31.28c-.16.23-1,3-2.51,8.29s-2.31,8.06-2.39,8.3L313.37,175a2.15,2.15,0,0,0-.25,1,2.64,2.64,0,0,0,1.26,2.21,4.39,4.39,0,0,0,2.56.89q4.41,0,11-4.54,6.31-4.17,8.94-8.6a4.62,4.62,0,0,0,1.55-2.15l9.76-26.87a45.55,45.55,0,0,1,12.56-2.38q9.55-.6,12.07-1.07,4.31-.84,10.7-6.27t8.06-9.72a7.19,7.19,0,0,0,.36-2c0-2.22-1.79-3.34-5.37-3.34a86.88,86.88,0,0,0-32.11,6.21q3.35-11.1,4.89-16.35c1-.08,2.27-.24,3.94-.48,1.43-.16,2.23-.24,2.39-.24h16.12q.94,0,5.72-.72,5.75-.83,12.78-6.68,6.68-5.49,8.24-9.91a6,6,0,0,0,.47-2.15C409,79.58,407.47,78.5,404.45,78.5Z"/><path class="cls-1" d="M244.75,81.36q-10.63,0-26.62,20.06-8.82,11.2-17.78,23.69-2.68,3.73-5.38,7.59-15.63,22.32-22.2,32.35c-.08.11-.14.21-.21.32a31.56,31.56,0,0,0-3.26,6.6,10.65,10.65,0,0,0-.71,3.34q0,3.58,4.54,3.58a18.64,18.64,0,0,0,9.42-2.86q2-1.2,8.6-6.21,3.84-3,24.7-13.47l3.83-1.93v.33c0,1,0,2.92.12,5.88a44.25,44.25,0,0,1,0,6.56,26,26,0,0,1-1.2,6.57,5.25,5.25,0,0,0-.23,1.43q0,3.34,3.46,3.34,5.49,0,13-6.2,7-5.85,8.83-10.75a28.78,28.78,0,0,0,1.56-9.66c0-5.06.11-10.31.25-15.7l0-1.23q.53-19,2-40.61V90.91a14.32,14.32,0,0,1,.35-3.45,12,12,0,0,0,.6-3.11C248.45,82.36,247.21,81.36,244.75,81.36ZM221,128.05c-.19,4.06-.39,7.86-.57,11.35q-12.57,6.57-19,10c4-5.84,9.13-13.23,15.44-22.1l4.4-6.17C221.18,123.54,221.07,125.82,221,128.05Z"/><path class="cls-1" d="M366.57,211.21c-66.83-3.4-135-3.63-202.63-2.34-31.36.6-62.6,1.52-93.52,2.61l-21,.76c-19.09.72-35.63,20-9.14,19,29.34-1.1,59-2.06,88.82-2.76q22.91-.54,45.89-.86,34.11-.43,68.25-.19c35.24.27,70.4,1.15,105.2,2.93a37.46,37.46,0,0,0,22.72-6.79C378.24,218.31,379.45,211.87,366.57,211.21Z"/><polygon class="cls-1" points="129.05 294.88 129.05 269.77 138.13 269.77 138.13 271.6 131.44 271.6 131.44 281.02 136.89 281.02 136.89 282.76 131.44 282.76 131.44 293.11 138.19 293.11 138.19 294.88 129.05 294.88"/><polygon class="cls-1" points="145.85 294.88 139.96 269.77 142.22 269.77 146.97 290.57 151.43 269.77 153.66 269.77 147.99 294.88 145.85 294.88"/><polygon class="cls-1" points="156.55 294.88 156.55 269.77 165.63 269.77 165.63 271.6 158.93 271.6 158.93 281.02 164.39 281.02 164.39 282.76 158.93 282.76 158.93 293.11 165.69 293.11 165.69 294.88 156.55 294.88"/><polygon class="cls-1" points="168.91 294.88 168.91 269.77 170.62 269.77 178.62 289.27 178.62 269.77 180.66 269.77 180.66 294.88 178.99 294.88 170.93 275.16 170.93 294.88 168.91 294.88"/><polygon class="cls-1" points="188.13 294.88 188.13 271.6 183.39 271.6 183.39 269.77 195.08 269.77 195.08 271.6 190.49 271.6 190.49 294.88 188.13 294.88"/><path class="cls-1" d="M209.52,295.19a6.23,6.23,0,0,1-3.39-.86,5.21,5.21,0,0,1-2-2.38,10.58,10.58,0,0,1-.84-3.58l2.08-.62a13.21,13.21,0,0,0,.56,2.8,4.21,4.21,0,0,0,1.27,2,3.62,3.62,0,0,0,2.38.73,3.67,3.67,0,0,0,2.61-.87,3.62,3.62,0,0,0,.93-2.76,5.09,5.09,0,0,0-.82-2.87,15.2,15.2,0,0,0-2.25-2.56L205.59,280a8,8,0,0,1-1.74-2.37,6.44,6.44,0,0,1-.56-2.69,5.12,5.12,0,0,1,1.55-4,6,6,0,0,1,4.12-1.39,7.88,7.88,0,0,1,2.41.34,4.49,4.49,0,0,1,1.83,1.1,5.32,5.32,0,0,1,1.19,2,11.82,11.82,0,0,1,.59,2.94l-2,.53a10.9,10.9,0,0,0-.51-2.71,3.39,3.39,0,0,0-1.21-1.72,3.84,3.84,0,0,0-2.28-.59,3.89,3.89,0,0,0-2.54.81,3,3,0,0,0-1,2.51,4.36,4.36,0,0,0,.39,1.86,6.48,6.48,0,0,0,1.38,1.79l4.43,4.19a15.87,15.87,0,0,1,2.57,3.1,7,7,0,0,1,1.09,3.84,6.27,6.27,0,0,1-.73,3.17,4.6,4.6,0,0,1-2,1.9A6.7,6.7,0,0,1,209.52,295.19Z"/><polygon class="cls-1" points="221.55 294.88 221.55 271.6 216.81 271.6 216.81 269.77 228.5 269.77 228.5 271.6 223.91 271.6 223.91 294.88 221.55 294.88"/><path class="cls-1" d="M236.93,269.77h-2.48l-5.3,25.11h2.29l1.27-6.73h6l1.24,6.73h2.33Zm-3.88,16.68,2.64-13.55,2.69,13.55Z"/><polygon class="cls-1" points="245.3 294.88 245.3 269.77 254.32 269.77 254.32 271.54 247.65 271.54 247.65 280.99 253.2 280.99 253.2 282.73 247.65 282.73 247.65 294.88 245.3 294.88"/><polygon class="cls-1" points="257.26 294.88 257.26 269.77 266.28 269.77 266.28 271.54 259.62 271.54 259.62 280.99 265.17 280.99 265.17 282.73 259.62 282.73 259.62 294.88 257.26 294.88"/><rect class="cls-1" x="269.29" y="269.77" width="2.36" height="25.11"/><polygon class="cls-1" points="276.11 294.88 276.11 269.77 277.81 269.77 285.81 289.27 285.81 269.77 287.86 269.77 287.86 294.88 286.19 294.88 278.12 275.16 278.12 294.88 276.11 294.88"/><path class="cls-1" d="M297.87,295.22a6.13,6.13,0,0,1-3.7-1,5.28,5.28,0,0,1-1.91-2.81,14.38,14.38,0,0,1-.56-4.2v-9.8a14,14,0,0,1,.55-4.18,5,5,0,0,1,1.92-2.74,8.13,8.13,0,0,1,7.47-.14,4.63,4.63,0,0,1,1.9,2.45,11.3,11.3,0,0,1,.59,3.93v.87H301.9v-.87a11.65,11.65,0,0,0-.32-3,3.12,3.12,0,0,0-1.14-1.77,4,4,0,0,0-2.38-.59,3.91,3.91,0,0,0-2.58.74,3.6,3.6,0,0,0-1.13,2.05,15.59,15.59,0,0,0-.26,3V287.5a12.9,12.9,0,0,0,.33,3.13,3.44,3.44,0,0,0,1.2,2,4,4,0,0,0,2.5.69,3.73,3.73,0,0,0,2.4-.7,3.66,3.66,0,0,0,1.19-2,12.48,12.48,0,0,0,.35-3.16v-2.95h-3.72v-1.76h5.89v12.15h-1.52l-.28-2.85a4.74,4.74,0,0,1-1.54,2.32A4.66,4.66,0,0,1,297.87,295.22Z"/></svg>